<?xml version="1.0" encoding="utf-8"?>
<!-- Generator: Adobe Illustrator 19.1.0, SVG Export Plug-In . SVG Version: 6.00 Build 0)  -->
<svg version="1.1" id="Layer_1" xmlns="http://www.w3.org/2000/svg" xmlns:xlink="http://www.w3.org/1999/xlink" x="0px" y="0px"
	 viewBox="0 0 121.1 24" style="enable-background:new 0 0 121.1 24;" xml:space="preserve">
<style type="text/css">
	.st0{fill:#FF7B00;}
</style>
<g>
	<path class="st0" d="M0,19.9c0-1.6,0.6-2.8,1.9-3.4c1.2-0.6,3.1-1,5.4-1h1.5v-0.7c0-1-0.3-2-0.9-2.7c-0.6-0.8-1.4-1.2-2.6-1.2
		c-0.9,0-1.6,0.2-2.3,0.5c-0.7,0.3-1,0.5-1.1,0.5c-0.3,0-0.5-0.1-0.7-0.4C1.1,11.2,1,10.9,1,10.6c0-0.5,0.5-0.9,1.4-1.3
		c0.9-0.4,2-0.5,3-0.5c2,0,3.5,0.6,4.5,1.7s1.5,2.6,1.5,4.3v8c0,0.3-0.1,0.5-0.4,0.7c-0.2,0.2-0.5,0.3-0.9,0.3
		c-0.3,0-0.6-0.1-0.8-0.3c-0.2-0.2-0.3-0.4-0.3-0.7v-1.2c-1.4,1.6-3,2.4-4.7,2.4c-1.2,0-2.3-0.4-3-1.1C0.4,22.2,0,21.2,0,19.9z
		 M2.6,19.6c0,0.8,0.2,1.4,0.7,1.8C3.7,21.8,4.3,22,5,22c0.9,0,1.7-0.4,2.5-1.1c0.8-0.7,1.2-1.4,1.2-2.2v-1.6H7.7
		c-0.6,0-1.1,0-1.6,0c-0.4,0-0.9,0.1-1.4,0.2c-0.5,0.1-0.9,0.2-1.2,0.4c-0.3,0.2-0.5,0.4-0.7,0.7C2.7,18.8,2.6,19.2,2.6,19.6z"/>
	<path class="st0" d="M14.4,17.9v-3.3c0-1.6,0.6-3,1.8-4.2s2.7-1.8,4.4-1.8c1.6,0,3,0.5,4.2,1.6c1.2,1.1,1.8,2.5,1.8,4.1
		c0,0.6-0.1,1.1-0.2,1.5c-0.1,0.4-0.4,0.6-0.7,0.8c-0.3,0.2-0.6,0.3-0.8,0.3c-0.3,0-0.6,0.1-1,0.1H17V18c0,1.1,0.4,2.1,1.2,2.8
		c0.8,0.7,1.9,1,3.2,1c0.7,0,1.3-0.1,1.8-0.3c0.5-0.2,0.9-0.4,1.2-0.6c0.3-0.2,0.6-0.3,0.8-0.3c0.3,0,0.5,0.1,0.7,0.4
		c0.2,0.3,0.3,0.5,0.3,0.8c0,0.5-0.5,1-1.4,1.5c-0.9,0.5-2.1,0.7-3.5,0.7c-2,0-3.7-0.6-5-1.7C15.1,21.2,14.4,19.8,14.4,17.9z
		 M17,15.3h5.8c0.5,0,0.9-0.1,1.1-0.2c0.2-0.1,0.3-0.4,0.3-0.8c0-0.9-0.3-1.8-1-2.5c-0.7-0.7-1.5-1.1-2.5-1.1c-1,0-1.8,0.3-2.5,1
		S17,13.2,17,14.2V15.3z"/>
	<path class="st0" d="M29.5,22.8v-13c0-0.3,0.1-0.5,0.4-0.7c0.2-0.2,0.5-0.2,0.9-0.2c0.3,0,0.6,0.1,0.8,0.3C31.9,9.4,32,9.6,32,9.9
		v1.5c0.4-0.7,0.9-1.3,1.7-1.8c0.7-0.5,1.5-0.8,2.4-0.8h1.1c0.3,0,0.5,0.1,0.7,0.4c0.2,0.2,0.3,0.5,0.3,0.8c0,0.3-0.1,0.6-0.3,0.8
		c-0.2,0.2-0.4,0.3-0.7,0.3h-1.1c-1.1,0-2,0.4-2.8,1.3s-1.2,2-1.2,3.3v7.1c0,0.2-0.1,0.4-0.4,0.6c-0.3,0.2-0.6,0.3-0.9,0.3
		c-0.4,0-0.7-0.1-0.9-0.3C29.6,23.3,29.5,23.1,29.5,22.8z"/>
	<path class="st0" d="M39.2,17.9v-3.2c0-1.6,0.6-3,1.8-4.2c1.2-1.2,2.7-1.8,4.3-1.8c1.7,0,3.1,0.6,4.3,1.8c1.2,1.2,1.8,2.6,1.8,4.2
		v3.2c0,1.6-0.6,3-1.9,4.2C48.5,23.4,47,24,45.4,24c-1.6,0-3.1-0.6-4.3-1.8C39.8,21,39.2,19.5,39.2,17.9z M41.8,17.9
		c0,1,0.4,1.8,1.1,2.6c0.7,0.7,1.5,1.1,2.5,1.1c1,0,1.8-0.4,2.5-1.1c0.7-0.8,1.1-1.6,1.1-2.6v-3.2c0-0.9-0.4-1.8-1.1-2.5
		c-0.7-0.7-1.6-1.1-2.5-1.1c-1,0-1.8,0.4-2.5,1.1c-0.7,0.7-1,1.6-1,2.5V17.9z"/>
	<path class="st0" d="M55,22.8V0.9c0-0.3,0.1-0.5,0.4-0.7C55.6,0.1,55.9,0,56.2,0c0.4,0,0.7,0.1,0.9,0.3c0.2,0.2,0.4,0.4,0.4,0.7
		v21.9c0,0.2-0.1,0.4-0.4,0.6c-0.3,0.2-0.6,0.3-0.9,0.3c-0.4,0-0.7-0.1-0.9-0.3C55.1,23.3,55,23.1,55,22.8z"/>
	<path class="st0" d="M60.6,19.9c0-1.6,0.6-2.8,1.9-3.4c1.2-0.6,3.1-1,5.4-1h1.5v-0.7c0-1-0.3-2-0.9-2.7c-0.6-0.8-1.4-1.2-2.6-1.2
		c-0.9,0-1.6,0.2-2.3,0.5c-0.7,0.3-1,0.5-1.1,0.5c-0.3,0-0.5-0.1-0.7-0.4c-0.2-0.3-0.3-0.6-0.3-0.9c0-0.5,0.5-0.9,1.4-1.3
		c0.9-0.4,2-0.5,3-0.5c2,0,3.5,0.6,4.5,1.7s1.5,2.6,1.5,4.3v8c0,0.3-0.1,0.5-0.4,0.7c-0.2,0.2-0.5,0.3-0.9,0.3
		c-0.3,0-0.6-0.1-0.8-0.3c-0.2-0.2-0.3-0.4-0.3-0.7v-1.2c-1.4,1.6-3,2.4-4.7,2.4c-1.2,0-2.3-0.4-3-1.1C61,22.2,60.6,21.2,60.6,19.9z
		 M63.2,19.6c0,0.8,0.2,1.4,0.7,1.8c0.4,0.4,1,0.6,1.8,0.6c0.9,0,1.7-0.4,2.5-1.1c0.8-0.7,1.2-1.4,1.2-2.2v-1.6h-1.1
		c-0.6,0-1.1,0-1.6,0c-0.4,0-0.9,0.1-1.4,0.2c-0.5,0.1-0.9,0.2-1.2,0.4c-0.3,0.2-0.5,0.4-0.7,0.7C63.3,18.8,63.2,19.2,63.2,19.6z"/>
	<path class="st0" d="M75.6,22.8V0.9c0-0.3,0.1-0.5,0.4-0.7C76.2,0.1,76.5,0,76.8,0c0.4,0,0.7,0.1,0.9,0.2c0.2,0.2,0.4,0.4,0.4,0.7
		v10.2c0.4-0.7,0.9-1.2,1.6-1.7c0.7-0.5,1.5-0.7,2.5-0.7c1.5,0,2.8,0.6,3.9,1.8c1.1,1.2,1.7,2.6,1.7,4.2v3.2c0,1.6-0.6,3-1.7,4.2
		c-1.1,1.2-2.4,1.8-3.8,1.8c-0.9,0-1.8-0.2-2.6-0.7c-0.8-0.5-1.4-1.1-1.7-1.7v1.3c0,0.3-0.1,0.5-0.4,0.7c-0.2,0.2-0.5,0.3-0.8,0.3
		c-0.4,0-0.7-0.1-0.9-0.3C75.7,23.3,75.6,23.1,75.6,22.8z M78.2,18.8c0,0.5,0.4,1.1,1.1,1.8c0.7,0.7,1.6,1,2.5,1
		c0.9,0,1.8-0.4,2.5-1.1c0.7-0.8,1.1-1.6,1.1-2.6v-3.2c0-0.9-0.4-1.8-1.1-2.5c-0.7-0.7-1.5-1.1-2.5-1.1c-0.9,0-1.8,0.3-2.5,1
		c-0.7,0.7-1.1,1.5-1.1,2.6V18.8z"/>
	<path class="st0" d="M90.3,22.5c0-0.4,0.2-0.8,0.5-1.1c0.3-0.3,0.7-0.4,1.2-0.4c0.4,0,0.8,0.1,1.1,0.4c0.3,0.3,0.5,0.6,0.5,1.1
		c0,0.4-0.2,0.7-0.5,1c-0.3,0.3-0.7,0.4-1.1,0.4c-0.5,0-0.8-0.1-1.2-0.4C90.4,23.2,90.3,22.9,90.3,22.5z"/>
	<path class="st0" d="M95.9,17.9v-3.1c0-1.8,0.5-3.3,1.6-4.4c1.1-1.1,2.6-1.7,4.6-1.7c1.3,0,2.4,0.2,3.3,0.7
		c0.9,0.5,1.3,0.9,1.3,1.5c0,0.3-0.1,0.6-0.3,0.9c-0.2,0.3-0.5,0.4-0.8,0.4c-0.1,0-0.4-0.2-1.1-0.5c-0.6-0.4-1.4-0.5-2.2-0.5
		c-1.3,0-2.2,0.3-2.8,1c-0.6,0.6-1,1.6-1,2.7v3.1c0,2.5,1.3,3.7,3.8,3.7c0.9,0,1.6-0.2,2.3-0.5c0.6-0.4,1-0.5,1.1-0.5
		c0.3,0,0.6,0.1,0.8,0.4c0.2,0.3,0.3,0.6,0.3,0.8c0,0.5-0.5,1-1.4,1.5c-0.9,0.5-2,0.7-3.4,0.7c-2.1,0-3.6-0.6-4.7-1.7
		C96.5,21.2,95.9,19.8,95.9,17.9z"/>
	<path class="st0" d="M108.8,17.9v-3.2c0-1.6,0.6-3,1.8-4.2c1.2-1.2,2.7-1.8,4.3-1.8c1.7,0,3.1,0.6,4.3,1.8c1.2,1.2,1.8,2.6,1.8,4.2
		v3.2c0,1.6-0.6,3-1.9,4.2c-1.2,1.2-2.7,1.8-4.3,1.8c-1.6,0-3.1-0.6-4.3-1.8C109.4,21,108.8,19.5,108.8,17.9z M111.4,17.9
		c0,1,0.4,1.8,1.1,2.6c0.7,0.7,1.5,1.1,2.5,1.1c1,0,1.8-0.4,2.5-1.1c0.7-0.8,1.1-1.6,1.1-2.6v-3.2c0-0.9-0.4-1.8-1.1-2.5
		c-0.7-0.7-1.6-1.1-2.5-1.1c-1,0-1.8,0.4-2.5,1.1c-0.7,0.7-1,1.6-1,2.5V17.9z"/>
</g>
</svg>
